<svg xmlns="http://www.w3.org/2000/svg" width="31.505" height="21.754" viewBox="0 0 31.505 21.754">
  <g id="Search_results_for_Increase_font_-_Flaticon-2" data-name="Search results for Increase font - Flaticon-2" transform="translate(0 0)">
    <g id="Group_10453" data-name="Group 10453" transform="translate(0 0)">
      <path id="Path_3358" data-name="Path 3358" d="M31.5,14.719v1.213a1.211,1.211,0,0,1-1.213,1.213H21.8a1.211,1.211,0,0,1-1.213-1.213V14.719A1.211,1.211,0,0,1,21.8,13.506h8.491A1.211,1.211,0,0,1,31.5,14.719ZM19.272,24.834a1.153,1.153,0,0,1,.033.587c-.045.129-.183.2-.418.2H14.908a.911.911,0,0,1-.739-.245,2.463,2.463,0,0,1-.352-.767l-1.03-3.821H6.3L5.223,24.7a1.4,1.4,0,0,1-.418.719,1.152,1.152,0,0,1-.707.2H.539a.613.613,0,0,1-.481-.148c-.087-.1-.077-.331.032-.7L6.282,4.814a2.068,2.068,0,0,1,.385-.705,1.169,1.169,0,0,1,.867-.245h4.042a1.113,1.113,0,0,1,.882.264,2.479,2.479,0,0,1,.368.718Zm-7.464-7.689L9.647,9.132H9.488l-2.2,8.013Z" transform="translate(0 -3.864)" fill="#4807e6"/>
    </g>
  </g>
</svg>
