<svg id="Search_results_for_Increase_font_-_Flaticon-2" data-name="Search results for Increase font - Flaticon-2" xmlns="http://www.w3.org/2000/svg" width="37.51" height="25.9" viewBox="0 0 37.51 25.9">
  <g id="Group_10453" data-name="Group 10453" transform="translate(0 0)">
    <path id="Path_3358" data-name="Path 3358" d="M37.51,16.788v1.444a1.442,1.442,0,0,1-1.444,1.444H33.177v2.889a1.442,1.442,0,0,1-1.444,1.444H30.289a1.442,1.442,0,0,1-1.444-1.444V19.675H25.956a1.442,1.442,0,0,1-1.444-1.444V16.788a1.442,1.442,0,0,1,1.444-1.444h2.889V12.455a1.442,1.442,0,0,1,1.444-1.444h1.444a1.442,1.442,0,0,1,1.444,1.444v2.889h2.889A1.441,1.441,0,0,1,37.51,16.788ZM22.945,28.831a1.373,1.373,0,0,1,.039.7c-.054.153-.218.234-.5.234H17.75a1.085,1.085,0,0,1-.88-.291,2.932,2.932,0,0,1-.419-.913L15.224,24.01H7.5L6.219,28.673a1.67,1.67,0,0,1-.5.856,1.372,1.372,0,0,1-.841.234H.642a.73.73,0,0,1-.572-.176c-.1-.116-.092-.394.038-.837L7.479,5a2.462,2.462,0,0,1,.458-.84A1.392,1.392,0,0,1,8.97,3.864h4.812a1.326,1.326,0,0,1,1.05.314,2.951,2.951,0,0,1,.439.855Zm-8.887-9.154-2.572-9.54H11.3l-2.614,9.54Z" transform="translate(0 -3.864)" fill="#4807e6"/>
  </g>
</svg>
