<svg xmlns="http://www.w3.org/2000/svg" width="107" height="107" viewBox="0 0 107 107">
  <g id="Group_16961" data-name="Group 16961" transform="translate(-755 -439)">
    <path id="Path_3463" data-name="Path 3463" d="M53.5,0A53.5,53.5,0,1,1,0,53.5,53.5,53.5,0,0,1,53.5,0Z" transform="translate(755 439)" fill="#f4f7fa"/>
    <g id="Search_results_for_Islamic_-_Flaticon-2" data-name="Search results for Islamic - Flaticon-2" transform="translate(778.842 463.842)">
      <g id="Circle_Grid" data-name="Circle Grid" transform="translate(-0.147 -0.147)">
        <circle id="Ellipse_227" data-name="Ellipse 227" cx="29" cy="29" r="29" transform="translate(0.305 0.305)" fill="#1438ab"/>
      </g>
      <g id="icon" transform="translate(10.531 10.543)">
        <path id="Path_3463-2" data-name="Path 3463" d="M56.493,46.087a13.679,13.679,0,0,0,2.917-3.821.448.448,0,0,1,.848.219A18.637,18.637,0,1,1,40.807,23.03a.447.447,0,0,1,.221.845A13.656,13.656,0,1,0,56.493,46.087Z" transform="translate(-23.003 -23.029)" fill="#fff"/>
        <path id="Path_3464" data-name="Path 3464" d="M68.612,36.434,72.786,38.4a.306.306,0,0,0,.342-.054l3.362-3.163a.308.308,0,0,1,.516.263l-.584,4.578a.308.308,0,0,0,.157.308l4.046,2.218a.307.307,0,0,1-.091.572L76,43.984a.307.307,0,0,0-.244.245l-.86,4.534a.307.307,0,0,1-.571.091l-2.219-4.047a.308.308,0,0,0-.309-.157l-4.578.583a.307.307,0,0,1-.263-.515l3.163-3.362a.307.307,0,0,0,.054-.342L68.2,36.843a.307.307,0,0,1,.409-.409Z" transform="translate(-46.941 -29.617)" fill="#fff"/>
        <path id="Path_3465" data-name="Path 3465" d="M69.576,42.484c-.023.5-.065,1.006-.13,1.506A15.513,15.513,0,1,1,48.6,23.16q.758-.1,1.521-.13a.446.446,0,0,1,.221.845A13.655,13.655,0,1,0,68.728,42.266a.448.448,0,0,1,.848.219Z" transform="translate(-32.32 -23.029)" fill="#f8f7f5"/>
      </g>
    </g>
  </g>
</svg>
