<svg xmlns="http://www.w3.org/2000/svg" width="107" height="107" viewBox="0 0 107 107">
  <g id="Group_16963" data-name="Group 16963" transform="translate(-755 -439)">
    <circle id="Ellipse_18" data-name="Ellipse 18" cx="53.5" cy="53.5" r="53.5" transform="translate(755 439)" fill="#f4f7fa"/>
    <g id="Search_results_for_Egypt_-_Flaticon-2" data-name="Search results for Egypt - Flaticon-2" transform="translate(780 464)">
      <circle id="Ellipse_226" data-name="Ellipse 226" cx="28.5" cy="28.5" r="28.5" transform="translate(0.5 0.5)" fill="#fff"/>
      <path id="Path_3377" data-name="Path 3377" d="M332.088,157.875H314.22a80.181,80.181,0,0,1,.015,19.223h17.891a29.027,29.027,0,0,0-.038-19.223Z" transform="translate(-275.745 -138.544)" fill="#efecec"/>
      <path id="Path_3378" data-name="Path 3378" d="M264.985,20.184h17.868a.2.2,0,0,0-.009-.025A29.016,29.016,0,0,0,258.115.972C262.553,3.405,263.85,11.114,264.985,20.184Z" transform="translate(-226.51 -0.853)" fill="#c42b27"/>
      <path id="Path_3379" data-name="Path 3379" d="M258.115,334.2a29.019,29.019,0,0,0,24.749-19.243c.01-.028.018-.055.028-.082H265C263.874,323.99,262.572,331.753,258.115,334.2Z" transform="translate(-226.51 -276.317)" fill="#0b0b0b"/>
      <path id="Path_3380" data-name="Path 3380" d="M0,167.544A28.958,28.958,0,0,0,1.619,177.1H39.982a80.187,80.187,0,0,0-.014-19.223H1.657A28.939,28.939,0,0,0,0,167.544Z" transform="translate(0 -138.544)" fill="#efefef"/>
      <path id="Path_3381" data-name="Path 3381" d="M13.542,19.306l-.009.025H51.844C50.709,10.261,47.919,2.552,43.48.119,42.622.043,41.754,0,40.875,0A29.006,29.006,0,0,0,13.542,19.306Z" transform="translate(-11.876)" fill="#cc3434"/>
      <path id="Path_3382" data-name="Path 3382" d="M51.583,314.871H13.219c.01.027.019.054.028.082A29.008,29.008,0,0,0,40.6,334.316c.878,0,1.746-.043,2.605-.12C47.662,331.753,50.457,323.99,51.583,314.871Z" transform="translate(-11.6 -276.317)" fill="#151515"/>
      <g id="Group_10632" data-name="Group 10632" transform="translate(23.259 22.314)">
        <path id="Path_3383" data-name="Path 3383" d="M201.354,195.672a7.838,7.838,0,0,0-1.29-.042c-.08.047-.07.184-.105.276.041.085.127.038.212.105.132.127.222.3.423.359-.173.181-.168.538-.423.635.043.416-.227.489-.635.571a24.859,24.859,0,0,1-7.064.147,3.53,3.53,0,0,1-1.207-.316.4.4,0,0,1-.105-.36c-.245-.122-.248-.486-.444-.656.274-.093.326-.406.635-.465a.946.946,0,0,0-.065-.3,8.486,8.486,0,0,0-1.332.042c.034-.473.045-1.011.085-1.565.054-.741.046-1.61.105-2.348.031-.376.019-.766.043-1.142.044-.715.012-1.424.064-2.094.054-.723.029-1.495.084-2.178.056-.708.251-1.274,1.078-1.207.98.082,1.6.9,2.665.909a2.788,2.788,0,0,0,.719-2.39c-.064-.412-.5-1.008-.93-.783-.064-.7.6-.6,1.036-.381.133-.083.173-.2.317-.233a1.592,1.592,0,0,1,.994.191,1.37,1.37,0,0,1,.487,1.227c0,.3-.067.59-.043.888a2.666,2.666,0,0,0,.529,1.46c.993.091,1.723-.793,2.686-.889a.972.972,0,0,1,.931.381,18.475,18.475,0,0,1,.275,3.279c.053.683.022,1.4.064,2.094C201.238,192.469,201.285,194.052,201.354,195.672Zm-4.759-11.062a6.169,6.169,0,0,0-.084-1.714c-.094-.089-.148-.218-.276-.275h-.316c-.158.085-.217.261-.381.3-.391.083-.422-.288-.719-.4-.077-.03-.181-.013-.276-.043-.283-.087-.451-.188-.592.212.518-.03.98.137,1.1.571-.3-.082-.213.183-.191.359a3.143,3.143,0,0,1-.381,2.052c-.141.228-.321.406-.423.614.308-.057.586-.039.74-.234.207-.258.163-.811.3-1.12a2.286,2.286,0,0,1-.507,1.5c.754-.106.885-.735.952-1.5a2,2,0,0,1-.17,1.057c.1.122.153.285.3.36a1.032,1.032,0,0,0,.275-.381,1.609,1.609,0,0,1-.127-1.037c-.01.814.213,1.4.91,1.5a2.105,2.105,0,0,1-.466-1.523,3.42,3.42,0,0,0,.275,1.163,1.5,1.5,0,0,0,.741.212A2.942,2.942,0,0,1,196.594,184.61Zm-1.332-1.925v.084c.051-.008.046.039.1.022a.13.13,0,0,0,.022-.105A.1.1,0,0,0,195.263,182.685ZM191.18,185.2a.808.808,0,0,0-.719.889c.2-.071.4-.262.614-.254-.115,3.183-.254,6.079-.381,9.222a2.508,2.508,0,0,0-.55.528h1.142c.06-.5.627-.608,1.1-.466.224-.776.452-1.549.657-2.348-.21.129-.317.359-.529.487.076-2.035.179-4.016.254-6.091a1.86,1.86,0,0,0,1.375.191,4.222,4.222,0,0,0,1.544-.677,3.452,3.452,0,0,0,1.9.719,2.3,2.3,0,0,0,.973-.191c.044,2.074.192,4.1.233,6.071a5.935,5.935,0,0,0-.507-.487c.187.8.43,1.545.634,2.327.493-.156,1.037-.021,1.121.466.373-.014.8.028,1.141-.022-.133-.236-.462-.3-.549-.55a4.279,4.279,0,0,1-.042-1.058c-.116-2.558-.279-5.579-.339-8.142a6.43,6.43,0,0,1,.614.275c-.048-.51-.259-.857-.74-.889-1.095-.073-1.726.934-2.834.909,0,.134.216.164.191.254a3.217,3.217,0,0,1-.74-.105c-.021.117.192.171.211.316a1.887,1.887,0,0,1-.994-.486,1.959,1.959,0,0,1-.317.4,2.514,2.514,0,0,0-.317-.4,1.379,1.379,0,0,1-.972.465c.062-.107.19-.148.211-.3a1.917,1.917,0,0,1-.74.085c.066-.077.177-.105.191-.234C192.964,186.141,192.232,185.121,191.18,185.2Zm2.051,2.285a5.419,5.419,0,0,0,2.453,4.886,5.518,5.518,0,0,0,2.391-4.886,4.36,4.36,0,0,1-1.734-.317c-.26-.112-.511-.317-.719-.381A3.756,3.756,0,0,1,193.232,187.487Zm.042,1.544c-.02,1.028-.184,2.282-.105,3.342a7.193,7.193,0,0,0,.191-2.051,2.784,2.784,0,0,0-.064-1.354A.1.1,0,0,1,193.274,189.031Zm4.7,1.9a3.378,3.378,0,0,0,.211,1.459c.022-1.125-.12-2.295-.126-3.406-.028,0-.029-.026-.064-.021A8.7,8.7,0,0,0,197.97,190.935Zm-4.357,1.206c.182-.206.386-.39.55-.615a1.635,1.635,0,0,0-.381-1.078C193.715,190.991,193.193,191.692,193.613,192.14Zm3.553-.593c.2.183.369.506.592.593.316-.514-.14-1.066-.19-1.65-.028,0-.03-.028-.065-.021A1.683,1.683,0,0,0,197.166,191.547Zm-2.834.952a5.865,5.865,0,0,0,.528-.677c-.263-.209-.454-.49-.7-.72C194.217,191.57,194.248,192.061,194.331,192.5Zm2.137-.657a3.574,3.574,0,0,0,.55.657c.043-.458.078-.923.147-1.354,0-.026-.006-.05-.042-.043A7.245,7.245,0,0,1,196.468,191.843Zm-2.919.423c-.026-.136-.1-.226-.127-.359a2.9,2.9,0,0,0-.3.93c-.034.118-.115.215-.105.339.242-.1.342-.35.592-.445a5.263,5.263,0,0,0,.211.55c.2-.094.187-.391.36-.508.1.341.2.678.316.995.225-.191.482-.351.55-.7-.127-.289-.243-.588-.359-.888-.172.117-.281.41-.423.487a3.27,3.27,0,0,0-.148-1.015A3.9,3.9,0,0,1,193.549,192.266Zm3.511.423c-.154-.157-.26-.359-.423-.507-.061.139-.132.276-.191.423a1.831,1.831,0,0,0-.169.465c-.016.332.35.487.55.7a6.064,6.064,0,0,1,.275-.994c.131.165.191.4.381.508.1-.177.165-.385.254-.571a5.646,5.646,0,0,0,.55.466,7.417,7.417,0,0,0-.381-1.29,1.663,1.663,0,0,1-.169.38,5.662,5.662,0,0,0-.571-.592A6.73,6.73,0,0,0,197.06,192.689Zm-2.158-.8c-.342.244.038.739.17,1.016.06-.244.115-.492.169-.741C195.125,192.073,195.013,191.98,194.9,191.886Zm1.185.3a2.539,2.539,0,0,0,.191.72c.118-.25.206-.528.316-.783-.06-.087-.1-.2-.211-.233C196.332,192.032,196.146,192.044,196.087,192.182Zm-2.559.634a2.16,2.16,0,0,1-.55.466c-.147.427.157.789.3,1.121.192-.14.275-.389.466-.528a3.2,3.2,0,0,0,.254.719c.207-.146.326-.49.527-.571a1.6,1.6,0,0,0,.17.656c.075-.4.172-.787.253-1.185-.171.035-.3.3-.465.4-.117-.306-.193-.652-.316-.952-.166.116-.19.375-.339.508A1.972,1.972,0,0,0,193.528,192.816Zm3.934.635c-.121-.175-.192-.4-.381-.508-.076.318-.163.627-.232.952-.176-.1-.294-.369-.466-.4a5.5,5.5,0,0,0,.3,1.206,3.894,3.894,0,0,1,.148-.7c.191.183.29.457.528.592.066-.251.157-.478.233-.719.179.153.264.4.466.528.117-.34.415-.657.3-1.1-.22-.14-.384-.335-.592-.487C197.634,193,197.59,193.268,197.462,193.451Zm-2.3,1.67c-.109.061-.186.154-.3.212-.045-.053-.175-.225-.211-.148s-.033.193-.064.276c.2.019.6-.059.7.127.286-.039.517.054.74,0,.083-.021.148-.111.233-.127.157-.031.31.028.466,0-.029-.092-.006-.234-.065-.3-.139-.005-.114.152-.253.147-.072-.1-.2-.136-.276-.233-.081-.588-.131-1.208-.253-1.756-.048.585.086,1.168.063,1.8-.113.1-.168.255-.3.339-.048-.142-.24-.214-.276-.4-.092-.517.192-1.318.065-1.735C195.313,193.9,195.287,194.561,195.157,195.122Zm-2.708.022a.521.521,0,0,0,.36.084,3.415,3.415,0,0,1,.4-.507,4.92,4.92,0,0,0,.255.656h.147c.114-.139.178-.329.3-.465.074.165.11.37.19.528a1.443,1.443,0,0,0,.381.022,1.639,1.639,0,0,0-.021-1.311c-.194.173-.309.424-.508.592a2.135,2.135,0,0,0-.276-.719c-.147.168-.28.353-.422.528-.15-.266-.192-.64-.4-.846C192.737,194.2,192.593,194.674,192.449,195.143Zm5.606-.592a2.432,2.432,0,0,0-.445-.528c-.124.207-.143.52-.276.719-.163-.183-.31-.493-.507-.571a1.669,1.669,0,0,0,.022,1.29,1.28,1.28,0,0,0,.359-.022c.1-.148.114-.379.211-.528.089.157.185.308.275.465h.169a6.7,6.7,0,0,1,.276-.677,3.1,3.1,0,0,0,.4.55c.118-.03.267-.029.317-.127-.143-.456-.263-.935-.4-1.4h-.064C198.293,194.013,198.175,194.284,198.055,194.551Zm-5.182.719a4.347,4.347,0,0,0,.508.084,1.186,1.186,0,0,0-.233-.507C193.076,195.008,192.927,195.092,192.872,195.27Zm5.076.084a3.953,3.953,0,0,0,.487-.084c-.016-.128-.181-.282-.275-.4C198.027,194.968,198,195.174,197.948,195.354Zm-4.252.043c.07.043.215.011.317.022-.04-.123-.033-.292-.147-.339A1.064,1.064,0,0,0,193.7,195.4Zm3.617.022h.3a.4.4,0,0,0-.212-.339C197.393,195.206,197.284,195.325,197.314,195.419Zm2.052-.3a15.936,15.936,0,0,1-1.756.36,8.779,8.779,0,0,1-1.354.042c-.124.134-.06.288.022.423a4.913,4.913,0,0,0,1.332-.022c-.023-.449.51-.56.571-.084a5.638,5.638,0,0,0,1.332-.339C199.517,195.324,199.516,195.148,199.366,195.122Zm-6.049.318c-.363-.052-.852-.223-1.185-.3-.189-.041-.245-.007-.316.084v.3a6.958,6.958,0,0,0,1.332.317c.039-.478.576-.388.549.084a4.956,4.956,0,0,0,1.333.022c.094-.148.156-.258.042-.423A9.76,9.76,0,0,1,193.317,195.439Zm-1.924.254a.883.883,0,0,0,.359-.191c-.01-.1.022-.248-.022-.317A.4.4,0,0,0,191.392,195.693Zm8.185-.169a1,1,0,0,0,.359.169.413.413,0,0,0-.338-.508C199.555,195.261,199.587,195.414,199.577,195.524Zm-6.155.571a.883.883,0,0,1,.169-.127.469.469,0,0,0-.084-.38C193.135,195.536,193.149,196.053,193.422,196.095Zm4.294-.148c.03.073.128.089.211.147.087-.048.128-.141.191-.211C198.107,195.42,197.575,195.609,197.716,195.947ZM193.1,195.9c-.563-.019-1.131-.414-1.629-.169-.016.1-.092.147-.064.3-.239-.025-.513.293-.529.4-.033.24.207.415.338.571a.52.52,0,0,0,.064.337,18.981,18.981,0,0,0,6.959.36c.649-.072,1.684-.139,1.862-.508v-.254c.235-.062.272-.319.338-.55-.188-.123-.251-.369-.55-.38.059-.085-.041-.163-.042-.254-.264-.224-.579-.06-.952.021-.512.112-.848.113-.974.487-.053-.131-.179-.188-.275-.276a4.395,4.395,0,0,1-1.353.022c-.11.172-.352.212-.381.465a1.057,1.057,0,0,1-.148-.508h-.211a1.145,1.145,0,0,1-.17.508c-.017-.258-.268-.281-.359-.465a5.9,5.9,0,0,1-1.355,0c-.145.045-.207.173-.316.254C193.342,196.077,193.189,196.025,193.1,195.9Zm2.306-.255a.9.9,0,0,0,.148.255c.258.053.281-.128.359-.255A1.267,1.267,0,0,0,195.41,195.65Zm-.3.36a.8.8,0,0,0,.317.233c.082-.219.025-.544-.212-.571C195.238,195.839,195.1,195.844,195.114,196.011Zm.91-.339c-.131.095-.3.446-.085.571.081-.1.224-.142.276-.276C196.125,195.894,196.145,195.712,196.024,195.672Z" transform="translate(-189.953 -182.241)" fill="#eebc31"/>
        <path id="Path_3384" data-name="Path 3384" d="M197.759,220.874a6.225,6.225,0,0,1-.719.613c.1-2.887.284-5.853.381-8.841a2.923,2.923,0,0,1,.656.55C197.985,215.779,197.865,218.146,197.759,220.874Z" transform="translate(-196.172 -208.923)" fill="#eebc31"/>
        <path id="Path_3385" data-name="Path 3385" d="M268.444,221.32c-.121.023-.239-.174-.36-.276a1.822,1.822,0,0,1-.381-.338c-.133-2.179-.1-4.478-.276-6.556a5.523,5.523,0,0,1-.042-1.079c.066-.258.5-.356.635-.591C268.182,215.133,268.293,218.462,268.444,221.32Z" transform="translate(-257.889 -208.777)" fill="#eebc31"/>
        <path id="Path_3386" data-name="Path 3386" d="M204.78,218.352a4.3,4.3,0,0,1,.528.423c-.051,1.7-.157,3.736-.233,5.435a3.484,3.484,0,0,1-.022.868c-.089.246-.435.378-.592.592C204.555,223.206,204.7,220.766,204.78,218.352Z" transform="translate(-202.685 -213.93)" fill="#eebc31"/>
        <path id="Path_3387" data-name="Path 3387" d="M262.642,225.766c-.028.029-.087-.045-.127-.085-.125-.124-.3-.314-.423-.444-.107-2.069-.189-4.227-.275-6.282a2.263,2.263,0,0,1,.487-.445C262.427,220.737,262.535,223.38,262.642,225.766Z" transform="translate(-253.018 -214.07)" fill="#eebc31"/>
        <path id="Path_3388" data-name="Path 3388" d="M222.29,221.248a5.42,5.42,0,0,1-2.221,4.632,5.663,5.663,0,0,1-2.306-4.632,3.978,3.978,0,0,0,2.306-.656A3.65,3.65,0,0,0,222.29,221.248Zm-2.982-.148c-.038.866-.021,2.032-.021,2.983a4.807,4.807,0,0,0,0,1.015c.038.136.248.262.359.359a2.415,2.415,0,0,0,.4.317c.207-.162.71-.41.783-.677a4.782,4.782,0,0,0,0-.994v-3c-.275-.135-.533-.285-.8-.423C219.834,220.864,219.516,220.927,219.308,221.1Z" transform="translate(-214.359 -215.896)" fill="#eebc31"/>
        <path id="Path_3389" data-name="Path 3389" d="M206.542,288.477c.132.044.342.011.359.17-.112.041-.2-.1-.359-.085Z" transform="translate(-204.511 -275.469)" fill="#eebc31"/>
        <path id="Path_3390" data-name="Path 3390" d="M264.075,288.624a1.416,1.416,0,0,1-.36.147C263.712,288.624,264,288.553,264.075,288.624Z" transform="translate(-254.684 -275.573)" fill="#eebc31"/>
        <path id="Path_3391" data-name="Path 3391" d="M211.725,290.208a.723.723,0,0,1,.444.147C212.03,290.361,211.753,290.327,211.725,290.208Z" transform="translate(-209.059 -276.988)" fill="#eebc31"/>
        <path id="Path_3392" data-name="Path 3392" d="M258.132,290.3a.7.7,0,0,1-.466.126A.6.6,0,0,1,258.132,290.3Z" transform="translate(-249.375 -277.062)" fill="#eebc31"/>
        <path id="Path_3393" data-name="Path 3393" d="M248.63,291.889a1.055,1.055,0,0,1-.466,0C248.2,291.746,248.583,291.758,248.63,291.889Z" transform="translate(-241.036 -278.373)" fill="#eebc31"/>
        <path id="Path_3394" data-name="Path 3394" d="M221.732,291.895c-.041.157-.339.056-.508.084C221.237,291.79,221.59,291.895,221.732,291.895Z" transform="translate(-217.395 -278.443)" fill="#eebc31"/>
        <path id="Path_3395" data-name="Path 3395" d="M227.36,292.258a.8.8,0,0,1-.445.063C226.958,292.206,227.237,292.22,227.36,292.258Z" transform="translate(-222.389 -278.763)" fill="#eebc31"/>
        <path id="Path_3396" data-name="Path 3396" d="M242.913,292.313a4.43,4.43,0,0,1-.445-.064C242.548,292.174,242.913,292.168,242.913,292.313Z" transform="translate(-236.038 -278.734)" fill="#eebc31"/>
        <path id="Path_3397" data-name="Path 3397" d="M256.084,294.535c.1,0,.044-.154.147-.148-.015.065.022.077.021.127a.418.418,0,0,1-.38.042c-.166.088-.372.393-.592.169-.152.025-.13.222-.254.276-.169-.133-.314-.068-.571-.043-.076.087-.082.241-.233.254.009-.1.125-.086.127-.19-.023-.069-.144-.039-.191-.085-.039-.173.1-.173.148-.254.1.023.1.134.127.233a.482.482,0,0,0,.191-.043.5.5,0,0,1,.147-.275c0-.117-.076-.277-.064-.339.121.028.063.234.127.317.163-.015.259.038.3.147.164-.063.214-.254.423-.253.092,0,.142.081.233.064.025-.281-.048-.858-.4-.635.016-.111.173-.082.3-.084C255.9,293.968,255.69,294.555,256.084,294.535Zm-.741.169c.1.087.342.04.317-.127C255.6,294.47,255.3,294.516,255.343,294.7Zm-.423.105a.775.775,0,0,0,.147-.042C255.068,294.526,254.73,294.646,254.921,294.809Zm-.191.064c.053,0,.065-.033.105-.043,0-.069.009-.148-.064-.147C254.733,294.72,254.673,294.8,254.73,294.873Zm-.508.043c.066.029.1.009.148-.022,0-.05-.037-.063-.022-.127C254.261,294.772,254.206,294.807,254.222,294.916Zm.719,0a.092.092,0,0,0,.148-.086C255.024,294.843,254.94,294.835,254.941,294.916Z" transform="translate(-246.29 -280.151)" fill="#eebc31"/>
        <path id="Path_3398" data-name="Path 3398" d="M205.868,294.457v.105c-.03.033-.108.019-.169.022-.018-.075,0-.053-.021-.127A.15.15,0,0,1,205.868,294.457Z" transform="translate(-203.753 -280.687)" fill="#eebc31"/>
        <path id="Path_3399" data-name="Path 3399" d="M205.517,296.6c0,.038-.026.045-.022.084-.086,0-.165,0-.169-.084A.2.2,0,0,1,205.517,296.6Z" transform="translate(-203.444 -282.575)" fill="#eebc31"/>
        <path id="Path_3400" data-name="Path 3400" d="M242.993,298.155h.084a.165.165,0,0,1,0,.169h-.084A.165.165,0,0,1,242.993,298.155Z" transform="translate(-236.478 -283.962)" fill="#eebc31"/>
        <path id="Path_3401" data-name="Path 3401" d="M215.668,298.495c.065.276.113.87-.127.909s-.17-.322-.4-.339a.626.626,0,0,1-.465.043c-.105.007-.088.137-.191.148.136-.141.079-.319.064-.487.114.013.13.124.127.255.061.128.316.042.4,0-.046-.089-.1-.166-.148-.255.13-.034.13-.154.254-.147a.221.221,0,0,1,.042.423c.139.052.156.225.276.3C215.779,299.281,215.574,298.74,215.668,298.495Zm-.634.338c0,.081.07.127.147.17C215.539,298.843,215.048,298.494,215.035,298.833Z" transform="translate(-211.48 -284.26)" fill="#eebc31"/>
        <path id="Path_3402" data-name="Path 3402" d="M225.931,298.495c.069.146-.024.479-.043.677A1.757,1.757,0,0,1,225.931,298.495Z" transform="translate(-221.467 -284.26)" fill="#eebc31"/>
        <path id="Path_3403" data-name="Path 3403" d="M244.06,298.495c.142.141-.025.589.147.7.145-.043.242-.023.276-.147s-.123-.175-.042-.254c.189.009.064.275.042.381a1.447,1.447,0,0,1-.635.042c.012-.108.125-.115.212-.148C244.14,298.883,244.014,298.643,244.06,298.495Z" transform="translate(-237.249 -284.26)" fill="#eebc31"/>
        <path id="Path_3404" data-name="Path 3404" d="M243.209,300.243c.013.124-.256.053-.169-.022C243.07,300.193,243.207,300.178,243.209,300.243Z" transform="translate(-236.524 -285.754)" fill="#eebc31"/>
        <path id="Path_3405" data-name="Path 3405" d="M250.671,301.568a1.149,1.149,0,0,1,.148-.276c-.059-.118-.292-.229-.128-.381C251.017,300.959,250.864,301.49,250.671,301.568Zm.021-.551c.011.082.044.141.128.148C250.87,301.1,250.775,300.946,250.692,301.017Z" transform="translate(-243.204 -286.38)" fill="#eebc31"/>
        <path id="Path_3406" data-name="Path 3406" d="M268.6,301.33c0,.124-.151.082-.211.042C268.417,301.254,268.525,301.289,268.6,301.33Z" transform="translate(-258.781 -286.714)" fill="#eebc31"/>
        <path id="Path_3407" data-name="Path 3407" d="M228.052,301.434a.941.941,0,0,0,.8.105c.062.059.055.185.106.254a.18.18,0,0,1,.127-.022c-.044-.251.306-.313.3-.042-.065.12-.254.113-.445.106-.087.048-.087.181-.169.232a.248.248,0,0,1-.191-.19,3.328,3.328,0,0,0-.677-.042c-.085.1-.167.308-.3.3.062-.108.182-.156.212-.3-.039-.081-.187-.144-.106-.276.2-.033.1.235.275.233C228.167,301.72,228.03,301.552,228.052,301.434Zm.064.359c.114,0,.309,0,.465.022.066.054.074.165.169.191.07-.092.19-.266.085-.4C228.6,301.8,228.093,301.353,228.116,301.794Zm1.057-.022c.11.019.15-.033.148-.127C229.241,301.537,229.1,301.662,229.173,301.772Z" transform="translate(-222.996 -286.839)" fill="#eebc31"/>
        <path id="Path_3408" data-name="Path 3408" d="M205.746,302.267c.067-.018.065.033.105.043a.343.343,0,0,1-.042.147C205.687,302.441,205.687,302.334,205.746,302.267Z" transform="translate(-203.779 -287.567)" fill="#eebc31"/>
        <path id="Path_3409" data-name="Path 3409" d="M207.593,302.958c.089.147-.126.225-.191.105C207.41,302.973,207.477,302.94,207.593,302.958Z" transform="translate(-205.265 -288.173)" fill="#eebc31"/>
        <path id="Path_3410" data-name="Path 3410" d="M210.176,303.516c-.021,0-.017.026-.022.043h-.148C209.906,303.385,210.184,303.323,210.176,303.516Z" transform="translate(-207.532 -288.562)" fill="#eebc31"/>
        <path id="Path_3411" data-name="Path 3411" d="M245.093,305.406c.113,0,.1.183.022.212C245.028,305.607,245.034,305.444,245.093,305.406Z" transform="translate(-238.303 -290.325)" fill="#eebc31"/>
        <path id="Path_3412" data-name="Path 3412" d="M246.766,305.731c-.062-.023-.125-.045-.147-.105C246.683,305.423,246.942,305.6,246.766,305.731Z" transform="translate(-239.681 -290.438)" fill="#eebc31"/>
        <path id="Path_3413" data-name="Path 3413" d="M205.974,294.7h.064c.006.292-.435.79.064.825.082-.052.037-.231.147-.254.012.112-.043.155-.064.233.1.271.584.117.381-.189.237,0,.051.257.021.359a.486.486,0,0,1-.444-.085c-.235-.019-.443-.065-.465-.3C205.889,295.206,205.936,294.956,205.974,294.7Z" transform="translate(-203.753 -280.929)" fill="#eebc31"/>
      </g>
    </g>
  </g>
</svg>
