<svg xmlns="http://www.w3.org/2000/svg" width="34.533" height="34.533" viewBox="0 0 34.533 34.533">
  <g id="Search_results_for_Flag_-_Flaticon-2" data-name="Search results for Flag - Flaticon-2" transform="translate(0 0)">
    <g id="Page-1" transform="translate(0 0)">
      <g id="_037---Waypoint-Flag" data-name="037---Waypoint-Flag">
        <path id="Shape" d="M8.766,39.564l.638-.178a1.153,1.153,0,0,0,.8-1.421L2.913,11.873a1.441,1.441,0,0,0-1.776-1l-.082.023a1.442,1.442,0,0,0-1,1.776L7.345,38.763A1.153,1.153,0,0,0,8.766,39.564Z" transform="translate(0 -5.073)" fill="#4807e6"/>
        <path id="Shape-2" data-name="Shape" d="M36.97,17.355a27.552,27.552,0,0,1-6.338-4.372.569.569,0,0,1-.161-.579A81.912,81.912,0,0,0,32.561,1.547c.071-.609-.256-.788-.6-.37C25.181,9.3,13.452-.31,6.47,7.077a2.387,2.387,0,0,1,.2.5l4.718,16.937c6.993-7.3,18.681,2.257,25.448-5.853.346-.418.411-1.182.137-1.3Z" transform="translate(-2.606 -0.95)" fill="#4807e6"/>
      </g>
    </g>
  </g>
</svg>
