<svg xmlns="http://www.w3.org/2000/svg" width="27.401" height="27.404" viewBox="0 0 27.401 27.404">
  <g id="Search_results_for_Home_-_Flaticon-2" data-name="Search results for Home - Flaticon-2" transform="translate(0 0.001)">
    <path id="Path_3330" data-name="Path 3330" d="M26.665,11.919l0,0L15.484.739a2.522,2.522,0,0,0-3.568,0L.744,11.911l-.011.011a2.522,2.522,0,0,0,1.679,4.3q.039,0,.078,0h.446v8.226A2.956,2.956,0,0,0,5.887,27.4h4.373a.8.8,0,0,0,.8-.8v-6.45A1.349,1.349,0,0,1,12.411,18.8h2.58a1.349,1.349,0,0,1,1.347,1.347V26.6a.8.8,0,0,0,.8.8h4.373a2.956,2.956,0,0,0,2.953-2.952V16.224h.413a2.523,2.523,0,0,0,1.785-4.306Zm0,0" transform="translate(0 0)" fill="#fff"/>
  </g>
</svg>
