<?xml version="1.0" encoding="utf-8"?>
<!-- Generator: Adobe Illustrator 24.0.0, SVG Export Plug-In . SVG Version: 6.00 Build 0)  -->
<svg version="1.1" id="Layer_1" xmlns="http://www.w3.org/2000/svg" xmlns:xlink="http://www.w3.org/1999/xlink" x="0px" y="0px"
	 viewBox="0 0 1000 1000" style="enable-background:new 0 0 1000 1000;" xml:space="preserve">
<style type="text/css">
	.st0{fill:#3800D8;}
</style>
<g>
	<path class="st0" d="M500,280.93c-120.98,0-219.06,98.08-219.06,219.07S379.01,719.06,500,719.06
		c120.99,0,219.06-98.08,219.06-219.06S620.99,280.93,500,280.93z M500,601.22c-55.9,0-101.22-45.32-101.22-101.22
		c0-55.9,45.32-101.22,101.22-101.22c55.91,0,101.22,45.32,101.22,101.22C601.22,555.9,555.9,601.22,500,601.22z"/>
	<circle class="st0" cx="500" cy="124.03" r="101.22"/>
	<circle class="st0" cx="765.85" cy="234.15" r="101.22"/>
	<circle class="st0" cx="875.97" cy="500" r="101.22"/>
	<circle class="st0" cx="765.85" cy="765.85" r="101.22"/>
	<circle class="st0" cx="500" cy="875.97" r="101.22"/>
	<circle class="st0" cx="234.15" cy="765.85" r="101.22"/>
	<circle class="st0" cx="124.03" cy="500" r="101.22"/>
	<circle class="st0" cx="234.15" cy="234.15" r="101.22"/>
</g>
</svg>
