<svg xmlns="http://www.w3.org/2000/svg" width="231.837" height="58.536" viewBox="0 0 231.837 58.536">
  <g id="Group_9834" data-name="Group 9834" transform="translate(-255.491 -370.74)">
    <g id="Group_1" data-name="Group 1" transform="translate(255.491 370.74)">
      <path id="Path_1" data-name="Path 1" d="M321.022,423.046a13.436,13.436,0,1,0,13.436,13.436A13.436,13.436,0,0,0,321.022,423.046Zm0,19.645a6.208,6.208,0,1,1,6.208-6.208A6.209,6.209,0,0,1,321.022,442.691Z" transform="translate(-291.754 -407.214)" fill="#4807e6"/>
      <circle id="Ellipse_1" data-name="Ellipse 1" cx="6.208" cy="6.208" r="6.208" transform="translate(23.06)" fill="#4807e6"/>
      <circle id="Ellipse_2" data-name="Ellipse 2" cx="6.208" cy="6.208" r="6.208" transform="translate(39.365 6.754)" fill="#4807e6"/>
      <circle id="Ellipse_3" data-name="Ellipse 3" cx="6.208" cy="6.208" r="6.208" transform="translate(46.119 23.06)" fill="#4807e6"/>
      <circle id="Ellipse_4" data-name="Ellipse 4" cx="6.208" cy="6.208" r="6.208" transform="translate(39.365 39.365)" fill="#4807e6"/>
      <circle id="Ellipse_5" data-name="Ellipse 5" cx="6.208" cy="6.208" r="6.208" transform="translate(23.06 46.119)" fill="#4807e6"/>
      <circle id="Ellipse_6" data-name="Ellipse 6" cx="6.208" cy="6.208" r="6.208" transform="translate(6.754 39.365)" fill="#4807e6"/>
      <circle id="Ellipse_7" data-name="Ellipse 7" cx="6.208" cy="6.208" r="6.208" transform="translate(0 23.06)" fill="#4807e6"/>
      <circle id="Ellipse_8" data-name="Ellipse 8" cx="6.208" cy="6.208" r="6.208" transform="translate(6.754 6.754)" fill="#4807e6"/>
    </g>
    <g id="Group_9826" data-name="Group 9826" transform="translate(5 3.789)">
      <g id="Group_9824" data-name="Group 9824" transform="translate(-8 -25.125)">
        <path id="Path_2" data-name="Path 2" d="M495.583,445.508V467.8h-4.726V445.508Z" transform="translate(-155.682 -49.315)" fill="#4807e6"/>
        <path id="Path_3" data-name="Path 3" d="M532.765,445.283v22.29h-1.13l-3.337-3.337-5.6-5.6L519.46,455.4l-4.726-4.726v-5.513h1.173l12.131,12.131v-12.01Zm-18.031,10.051,4.726,4.726v7.484h-4.726Z" transform="translate(-171.475 -49.087)" fill="#4807e6"/>
        <path id="Path_4" data-name="Path 4" d="M586.635,454.631l-2.978,5.328-7.292-13.175-.642-1.16h5.927l.168.3Zm14.674-9.007-.642,1.16-11.476,21.1h-1.273l-2.383-4.528,2.978-5.327,0,.005.557-1.005.978-1.766,5.164-9.332.168-.3Z" transform="translate(-211.816 -49.392)" fill="#4807e6"/>
        <path id="Path_5" data-name="Path 5" d="M675.8,456.949a11.087,11.087,0,1,1-11.088-11.088A11.1,11.1,0,0,1,675.8,456.949Zm-11.088-6.46a6.46,6.46,0,1,0,6.46,6.46A6.467,6.467,0,0,0,664.711,450.489Z" transform="translate(-263.343 -49.549)" fill="#4807e6"/>
      </g>
      <g id="Group_9825" data-name="Group 9825" transform="translate(-108 3)">
        <path id="Path_6" data-name="Path 6" d="M764.142,453.233l2.974,5.338-4.818,8.706-.254.457h-5.928l.728-1.316Zm17.732,14.5h-5.929l-.253-.457-4.437-8.019-2.174-3.927-.087-.157-2.974-5.338.01-.018.237-.429L768.2,445.9l.228-.491h1.135l.22.489,1.936,3.5,9.425,17.028Z" transform="translate(-331.136 -49.247)" fill="#4807e6"/>
        <path id="Path_7" data-name="Path 7" d="M851.4,458.868l-.376,1.16a11.164,11.164,0,1,1-3.853-12.33,11.242,11.242,0,0,1,3.957,5.774l.327,1.132h-4.9l-.23-.54a6.438,6.438,0,1,0-.127,5.3l.242-.5Z" transform="translate(-379.506 -49.254)" fill="#4807e6"/>
        <path id="Path_8" data-name="Path 8" d="M899.749,453.233l2.974,5.338-4.818,8.706-.253.457h-5.928l.728-1.316Zm17.732,14.5h-5.929l-.253-.457-4.437-8.019-2.174-3.927-.087-.157-2.974-5.338.01-.018.237-.429,1.935-3.495.227-.491h1.136l.219.489,1.936,3.5,9.425,17.028Z" transform="translate(-420.833 -49.247)" fill="#4807e6"/>
        <path id="Path_9" data-name="Path 9" d="M996.009,456.8a11.152,11.152,0,0,1-9.8,11.079l-.053.007H975.793V453.662h4.726v9.5h5.317a6.433,6.433,0,0,0,2.888-11.493,6.389,6.389,0,0,0-2.594-1.175,6.537,6.537,0,0,0-.983-.121h-9.354V445.63l9.9.037A11.163,11.163,0,0,1,996.009,456.8Z" transform="translate(-476.441 -49.396)" fill="#4807e6"/>
        <path id="Path_10" data-name="Path 10" d="M1065.32,445.633v4.726h-19.883v-4.726Zm-15.156,17.526h15.156v4.726h-19.883V453.625l4.726.029h13.172v4.727h-13.172Z" transform="translate(-522.506 -49.398)" fill="#4807e6"/>
        <path id="Path_11" data-name="Path 11" d="M1134.125,445.162v22.412H1129.4V455.54l-2.507,2.507-.966.965-.26.26-.865.864-.626.625-3.18-3.181-2.183-2.182-4.726-4.726v-5.51h1.176l4.5,4.5,4.419,4.42,8.916-8.916Zm-20.04,10.167,4.726,4.717v7.527h-4.726Z" transform="translate(-567.913 -49.087)" fill="#4807e6"/>
        <path id="Path_12" data-name="Path 12" d="M1201.149,445.455l-1.031,1.409-7.292,9.968-.22.3-.009.012-.009.011v0l-.17.232v10.377h-4.726V457.4l-.175-.239v0l-.009-.011-.009-.012-.22-.3-7.291-9.967-1.031-1.409h5.854l.266.363,4.977,6.8,4.978-6.8.266-.363Z" transform="translate(-610.821 -49.28)" fill="#4807e6"/>
      </g>
    </g>
  </g>
</svg>
