<svg xmlns="http://www.w3.org/2000/svg" width="33.734" height="33.734" viewBox="0 0 33.734 33.734">
  <g id="Search_results_for_Questions_-_Flaticon-2_1_" data-name="Search results for Questions - Flaticon-2 (1)" transform="translate(0 0)">
    <path id="Path_3338" data-name="Path 3338" d="M31.712,27.161a10.223,10.223,0,0,0,2.021-6.109,10.652,10.652,0,0,0-4.928-8.868A12.807,12.807,0,0,0,24.589,3.86,14.975,14.975,0,0,0,14.428,0,14.975,14.975,0,0,0,4.268,3.86,12.736,12.736,0,0,0,0,13.318a12.484,12.484,0,0,0,2.575,7.6L.1,27.046a1.318,1.318,0,0,0,1.753,1.7l7.07-3.116a15.166,15.166,0,0,0,2.737.761,11.344,11.344,0,0,0,3.986,3.882,12.472,12.472,0,0,0,6.2,1.681c.032,0,.065,0,.1,0a12.541,12.541,0,0,0,4.395-.783l5.549,2.446a1.318,1.318,0,0,0,1.753-1.7Zm-2.73.278,1,2.462-3.086-1.36a1.318,1.318,0,0,0-1.049-.006,9.883,9.883,0,0,1-3.85.787l-.053,0a9.684,9.684,0,0,1-6.764-2.7,15.364,15.364,0,0,0,6.2-1.623,1.318,1.318,0,1,0-1.193-2.35,12.9,12.9,0,0,1-10.771.344,1.317,1.317,0,0,0-1.049.006L3.755,25.026l1.552-3.839a1.318,1.318,0,0,0-.219-1.349,9.954,9.954,0,0,1-2.453-6.52c0-5.89,5.291-10.682,11.794-10.682S26.222,7.427,26.222,13.318a9.911,9.911,0,0,1-1.618,5.4,1.318,1.318,0,0,0,2.211,1.434,12.641,12.641,0,0,0,1.857-4.705,7.838,7.838,0,0,1,2.426,5.6,7.691,7.691,0,0,1-1.9,5.038A1.318,1.318,0,0,0,28.982,27.439ZM15.68,20.1a1.318,1.318,0,0,1-1.318,1.318h0a1.318,1.318,0,0,1,0-2.635h0A1.318,1.318,0,0,1,15.68,20.1Zm3.688-9.873c0,.018,0,.037,0,.055a4.937,4.937,0,0,1-3,4.548,1.043,1.043,0,0,0-.622.969v.085a1.318,1.318,0,1,1-2.635,0v-.085A3.675,3.675,0,0,1,15.332,12.4a2.3,2.3,0,0,0,1.4-2.085c0-.013,0-.025,0-.038a2.306,2.306,0,0,0-4.611,0,1.318,1.318,0,1,1-2.635,0,4.941,4.941,0,0,1,9.882-.055Z" transform="translate(0.001 0)" fill="#4807e6"/>
  </g>
</svg>
