<svg xmlns="http://www.w3.org/2000/svg" width="19.513" height="19.513" viewBox="0 0 19.513 19.513">
  <g id="Search_results_for_Filter_-_Flaticon-2" data-name="Search results for Filter - Flaticon-2" transform="translate(-8.5 28.013) rotate(-90)" opacity="0.5">
    <g id="_x32_7-Setting" transform="translate(8.5 8.5)">
      <g id="Group_10462" data-name="Group 10462">
        <path id="Path_3359" data-name="Path 3359" d="M12.151,13.967V9.444a.944.944,0,0,0-1.888,0v4.523a2.693,2.693,0,0,0,0,5.054v8.048a.944.944,0,0,0,1.888,0V19.021a2.693,2.693,0,0,0,0-5.055Z" transform="translate(-8.5 -8.5)" fill="#121212"/>
        <path id="Path_3360" data-name="Path 3360" d="M23.351,18.079V9.444a.944.944,0,0,0-1.888,0v8.635a2.693,2.693,0,0,0,0,5.054v3.935a.944.944,0,1,0,1.888,0V23.134a2.693,2.693,0,0,0,0-5.055Z" transform="translate(-12.65 -8.5)" fill="#121212"/>
        <path id="Path_3361" data-name="Path 3361" d="M34.551,13.967V9.444a.944.944,0,1,0-1.888,0v4.523a2.693,2.693,0,0,0,0,5.055v8.048a.944.944,0,1,0,1.888,0V19.021a2.693,2.693,0,0,0,0-5.055Z" transform="translate(-16.8 -8.5)" fill="#121212"/>
      </g>
    </g>
  </g>
</svg>
