<svg xmlns="http://www.w3.org/2000/svg" width="32.933" height="32.929" viewBox="0 0 32.933 32.929">
  <g id="Search_results_for_Timer_-_Flaticon-2_1_" data-name="Search results for Timer - Flaticon-2 (1)" transform="translate(0 0)">
    <path id="Path_3336" data-name="Path 3336" d="M18.173.1a16.919,16.919,0,0,0-1.7-.085h-.017a1.715,1.715,0,0,0-1.686,1.729V8.536A1.612,1.612,0,0,0,14.9,9.2a1.7,1.7,0,0,0,1.775,1.027,1.756,1.756,0,0,0,1.5-1.768V3.54a13.063,13.063,0,1,1-8.038,1.529,1.691,1.691,0,0,0,.726-2.126l0,0a1.706,1.706,0,0,0-2.4-.84A16.466,16.466,0,1,0,18.173.1Zm0,0" transform="translate(-0.001 -0.019)" fill="#121212"/>
    <path id="Path_3337" data-name="Path 3337" d="M158.739,159.72a32.7,32.7,0,0,0,4.6,7.878,2.93,2.93,0,0,0,4.01.355,2.84,2.84,0,0,0,.184-4.183c-1.754-1.753-6.2-4.077-8.071-4.785a.566.566,0,0,0-.727.736Zm0,0" transform="translate(-148.493 -148.726)" fill="#121212"/>
  </g>
</svg>
