<svg xmlns="http://www.w3.org/2000/svg" width="107" height="107" viewBox="0 0 107 107">
  <g id="Group_16962" data-name="Group 16962" transform="translate(-1059 -439)">
    <circle id="Ellipse_218" data-name="Ellipse 218" cx="53.5" cy="53.5" r="53.5" transform="translate(1059 439)" fill="#f4f7fa"/>
    <g id="Search_results_for_Egypt_-_Flaticon-2_1_" data-name="Search results for Egypt - Flaticon-2 (1)" transform="translate(1082.998 463)">
      <g id="Group_10633" data-name="Group 10633" transform="translate(0.122)">
        <rect id="Rectangle_2396" data-name="Rectangle 2396" width="57.741" height="0.001" transform="translate(0.011 31.712)" fill="#c42126"/>
        <rect id="Rectangle_2397" data-name="Rectangle 2397" width="51.724" height="0.001" transform="translate(3.018 15.881)" fill="#c42126"/>
        <rect id="Rectangle_2398" data-name="Rectangle 2398" width="55.835" height="0.001" transform="translate(0.962 21.157)" fill="#c42126"/>
        <path id="Path_3414" data-name="Path 3414" d="M101.78,431.347h33.072l0,0H101.778Z" transform="translate(-89.435 -378.529)" fill="#c42126"/>
        <path id="Path_3415" data-name="Path 3415" d="M224.685,0c-.57,0-1.135.021-1.7.053h3.392C225.819.021,225.254,0,224.685,0Z" transform="translate(-195.805)" fill="#c42126"/>
        <rect id="Rectangle_2399" data-name="Rectangle 2399" width="57.759" height="0.001" transform="translate(0 26.435)" fill="#c42126"/>
      </g>
      <path id="Path_3416" data-name="Path 3416" d="M290.892,48.8H304.74a29.147,29.147,0,0,0-5.674-5.275h-10.4A27.569,27.569,0,0,1,290.892,48.8Z" transform="translate(-253.319 -38.196)" fill="#e7e7e7"/>
      <path id="Path_3417" data-name="Path 3417" d="M248.939,5.707h10.4A28.84,28.84,0,0,0,244.289.43H243.4C246.027.761,247.235,2.708,248.939,5.707Z" transform="translate(-213.591 -0.377)" fill="#dc3027"/>
      <path id="Path_3418" data-name="Path 3418" d="M335.928,134.985a28.806,28.806,0,0,0-2.057-5.275H317.94c.323,1.694.577,3.463.766,5.275Z" transform="translate(-279.008 -113.828)" fill="#e7e7e7"/>
      <path id="Path_3419" data-name="Path 3419" d="M301.2,91.888h16.827a29.016,29.016,0,0,0-3.442-5.276h-14.7A46.552,46.552,0,0,1,301.2,91.888Z" transform="translate(-263.164 -76.007)" fill="#dc3027"/>
      <path id="Path_3420" data-name="Path 3420" d="M329.178,221.169h17.563c.083-.892.131-1.8.131-2.711,0-.865-.045-1.719-.12-2.565H329.182C329.239,217.648,329.238,219.415,329.178,221.169Z" transform="translate(-288.87 -189.458)" fill="#e7e7e7"/>
      <path id="Path_3421" data-name="Path 3421" d="M337.078,178.077a28.889,28.889,0,0,0-.962-5.275H318.154c.18,1.728.3,3.5.358,5.275Z" transform="translate(-279.196 -151.643)" fill="#dc3027"/>
      <path id="Path_3422" data-name="Path 3422" d="M315.465,307.351h16.158a28.77,28.77,0,0,0,2.091-5.276H316.246C316.054,303.89,315.793,305.659,315.465,307.351Z" transform="translate(-276.836 -265.087)" fill="#e7e7e7"/>
      <path id="Path_3423" data-name="Path 3423" d="M339.185,264.263a28.821,28.821,0,0,0,.993-5.275h-18.11c-.062,1.782-.185,3.549-.369,5.275Z" transform="translate(-282.307 -227.276)" fill="#dc3027"/>
      <path id="Path_3424" data-name="Path 3424" d="M299.406,393.536a29.167,29.167,0,0,0,5.758-5.275H291.558a26.95,26.95,0,0,1-2.267,5.275Z" transform="translate(-253.867 -340.72)" fill="#e7e7e7"/>
      <g id="Group_10634" data-name="Group 10634" transform="translate(27.775 42.264)">
        <path id="Path_3425" data-name="Path 3425" d="M303.625,350.443h14.118a29.044,29.044,0,0,0,3.49-5.276H304.956A45.912,45.912,0,0,1,303.625,350.443Z" transform="translate(-294.22 -345.167)" fill="#dc3027"/>
        <path id="Path_3426" data-name="Path 3426" d="M226.994,473.463l-.176-.006Z" transform="translate(-226.818 -457.748)" fill="#dc3027"/>
        <path id="Path_3427" data-name="Path 3427" d="M236.837,436.542a28.865,28.865,0,0,0,16.536-5.182h-10.5C241.015,434.569,239.786,436.542,236.837,436.542Z" transform="translate(-235.61 -420.806)" fill="#dc3027"/>
      </g>
      <path id="Path_3428" data-name="Path 3428" d="M229.306,473.53c-.352,0-.7-.008-1.051-.021C228.608,473.521,228.958,473.53,229.306,473.53Z" transform="translate(-200.304 -415.53)" fill="#c42126"/>
      <path id="Path_3429" data-name="Path 3429" d="M83.472,43.525H59.422A29.148,29.148,0,0,0,53.747,48.8H85.7A27.568,27.568,0,0,0,83.472,43.525Z" transform="translate(-47.164 -38.196)" fill="#f3f4f5"/>
      <path id="Path_3430" data-name="Path 3430" d="M100.092,5.707h24.05c-1.7-3-3.873-4.946-6.5-5.277h-2.5A28.837,28.837,0,0,0,100.092,5.707Z" transform="translate(-87.834 -0.377)" fill="#e73625"/>
      <path id="Path_3431" data-name="Path 3431" d="M8.835,134.985H48.364c-.189-1.813-.443-3.582-.766-5.275H10.892A28.8,28.8,0,0,0,8.835,134.985Z" transform="translate(-7.751 -113.828)" fill="#f3f4f5"/>
      <path id="Path_3432" data-name="Path 3432" d="M29.079,86.609a29.036,29.036,0,0,0-3.442,5.276H62.343a46.5,46.5,0,0,0-1.314-5.276Z" transform="translate(-22.496 -76.004)" fill="#e73625"/>
      <path id="Path_3433" data-name="Path 3433" d="M0,218.461c0,.914.048,1.818.131,2.711H40.967c.06-1.754.061-3.521,0-5.275H.122C.047,216.742,0,217.6,0,218.461Z" transform="translate(0 -189.46)" fill="#f3f4f5"/>
      <path id="Path_3434" data-name="Path 3434" d="M.978,178.077H41.827c-.058-1.781-.178-3.548-.358-5.275H1.94A28.847,28.847,0,0,0,.978,178.077Z" transform="translate(-0.856 -151.643)" fill="#e73625"/>
      <path id="Path_3435" data-name="Path 3435" d="M48.648,302.072H9.175a28.79,28.79,0,0,0,2.091,5.276h36.6C48.2,305.656,48.456,303.887,48.648,302.072Z" transform="translate(-8.05 -265.085)" fill="#f3f4f5"/>
      <path id="Path_3436" data-name="Path 3436" d="M2.061,264.263H41.534c.184-1.727.307-3.494.369-5.275H1.068A28.855,28.855,0,0,0,2.061,264.263Z" transform="translate(-0.935 -227.276)" fill="#e73625"/>
      <path id="Path_3437" data-name="Path 3437" d="M60.511,393.536H84.267a26.939,26.939,0,0,0,2.267-5.275H54.753A29.154,29.154,0,0,0,60.511,393.536Z" transform="translate(-48.047 -340.72)" fill="#f3f4f5"/>
      <g id="Group_10635" data-name="Group 10635" transform="translate(3.216 42.264)">
        <path id="Path_3438" data-name="Path 3438" d="M26.254,345.166a29.049,29.049,0,0,0,3.49,5.276H61.524a46,46,0,0,0,1.331-5.276Z" transform="translate(-26.254 -345.166)" fill="#e73625"/>
        <path id="Path_3439" data-name="Path 3439" d="M117.1,436.514l.176.006c.349.012.7.021,1.051.021,2.949,0,5.354-1.972,7.217-5.182H101.793A28.847,28.847,0,0,0,117.1,436.514Z" transform="translate(-92.544 -420.805)" fill="#e73625"/>
      </g>
      <path id="Path_3440" data-name="Path 3440" d="M29.285.123A28.991,28.991,0,0,0,1.008,26.5H29.285V.123Z" transform="translate(-0.883 -0.108)" fill="#283991"/>
      <g id="Group_10636" data-name="Group 10636" transform="translate(0.978 2.01)">
        <path id="Path_3441" data-name="Path 3441" d="M33.964,134.187l.442,1.36h1.431l-1.158.841.442,1.361-1.157-.842-1.157.842.441-1.361-1.158-.841h1.431Z" transform="translate(-29.138 -119.766)" fill="#efefef"/>
        <path id="Path_3442" data-name="Path 3442" d="M33.964,173.438l.442,1.361h1.431l-1.158.841L35.122,177l-1.157-.842L32.807,177l.441-1.361-1.158-.841h1.431Z" transform="translate(-29.138 -154.211)" fill="#efefef"/>
        <path id="Path_3443" data-name="Path 3443" d="M73.219,75.3l.442,1.361h1.431l-1.158.842.442,1.36-1.157-.841-1.158.841L72.5,77.5l-1.158-.842h1.431Z" transform="translate(-63.585 -68.086)" fill="#efefef"/>
        <path id="Path_3444" data-name="Path 3444" d="M73.219,114.554l.442,1.361h1.431l-1.158.841.442,1.361-1.157-.841-1.158.841.442-1.361-1.158-.841h1.431Z" transform="translate(-63.585 -102.537)" fill="#efefef"/>
        <path id="Path_3445" data-name="Path 3445" d="M73.219,153.812l.442,1.361h1.431l-1.158.84.442,1.361-1.157-.842-1.158.842.442-1.361-1.158-.84h1.431Z" transform="translate(-63.585 -136.988)" fill="#efefef"/>
        <path id="Path_3446" data-name="Path 3446" d="M9.148,166.416l-.442-1.361,1.158-.841H8.433l-.032-.1c-.157.486-.3.978-.43,1.475l.02-.015Z" transform="translate(-7.971 -146.029)" fill="#efefef"/>
        <path id="Path_3447" data-name="Path 3447" d="M37.219,98.489l1.157-.842,1.158.842-.442-1.361,1.158-.842H38.817l-.442-1.36-.442,1.36h-.528c-.1.148-.193.3-.288.448l.542.393Z" transform="translate(-33.549 -85.312)" fill="#efefef"/>
        <path id="Path_3448" data-name="Path 3448" d="M78.345,48.514l1.157.841-.442-1.36,1.157-.842H79.39q-1.053.787-2.03,1.666l-.174.536Z" transform="translate(-68.711 -43.389)" fill="#efefef"/>
        <path id="Path_3449" data-name="Path 3449" d="M116.452,28.416l1.158-.842,1.157.842-.442-1.361,1.157-.841h-1.431l-.06-.183c-.485.248-.965.505-1.434.78l.336.244Z" transform="translate(-103.169 -24.853)" fill="#efefef"/>
        <path id="Path_3450" data-name="Path 3450" d="M112.478,55.671l.442,1.36h1.431l-1.158.842.442,1.361-1.157-.842-1.158.842.442-1.361-1.158-.842h1.431Z" transform="translate(-98.037 -50.864)" fill="#efefef"/>
        <path id="Path_3451" data-name="Path 3451" d="M112.478,94.929l.442,1.36h1.431l-1.158.842.442,1.361-1.157-.842-1.158.842.442-1.361-1.158-.842h1.431Z" transform="translate(-98.037 -85.315)" fill="#efefef"/>
        <path id="Path_3452" data-name="Path 3452" d="M112.478,134.187l.442,1.36h1.431l-1.158.841.442,1.361-1.157-.842-1.158.842.442-1.361-1.158-.841h1.431Z" transform="translate(-98.037 -119.766)" fill="#efefef"/>
        <path id="Path_3453" data-name="Path 3453" d="M112.478,173.438l.442,1.361h1.431l-1.158.841.442,1.361-1.157-.842L111.32,177l.442-1.361L110.6,174.8h1.431Z" transform="translate(-98.037 -154.211)" fill="#efefef"/>
        <path id="Path_3454" data-name="Path 3454" d="M151.736,36.038l.442,1.361h1.431l-1.157.842.441,1.36-1.157-.841-1.158.841.442-1.36-1.158-.842h1.431Z" transform="translate(-132.488 -33.635)" fill="#efefef"/>
        <path id="Path_3455" data-name="Path 3455" d="M151.736,75.3l.442,1.361h1.431l-1.157.842.441,1.36-1.157-.841-1.158.841.442-1.36-1.158-.842h1.431Z" transform="translate(-132.488 -68.086)" fill="#efefef"/>
        <path id="Path_3456" data-name="Path 3456" d="M151.736,114.554l.442,1.361h1.431l-1.157.841.441,1.361-1.157-.841-1.158.841.442-1.361-1.158-.841h1.431Z" transform="translate(-132.488 -102.537)" fill="#efefef"/>
        <path id="Path_3457" data-name="Path 3457" d="M151.736,153.812l.442,1.361h1.431l-1.157.84.441,1.361-1.157-.842-1.158.842.442-1.361-1.158-.84h1.431Z" transform="translate(-132.488 -136.988)" fill="#efefef"/>
        <path id="Path_3458" data-name="Path 3458" d="M190.994,16.413l.442,1.361h1.431l-1.158.841.442,1.361-1.157-.842-1.158.842.442-1.361-1.158-.841h1.431Z" transform="translate(-166.939 -16.413)" fill="#efefef"/>
        <path id="Path_3459" data-name="Path 3459" d="M190.994,55.671l.442,1.36h1.431l-1.158.842.442,1.361-1.157-.842-1.158.842.442-1.361-1.158-.842h1.431Z" transform="translate(-166.939 -50.864)" fill="#efefef"/>
        <path id="Path_3460" data-name="Path 3460" d="M190.994,94.929l.442,1.36h1.431l-1.158.842.442,1.361-1.157-.842-1.158.842.442-1.361-1.158-.842h1.431Z" transform="translate(-166.939 -85.315)" fill="#efefef"/>
        <path id="Path_3461" data-name="Path 3461" d="M190.994,134.187l.442,1.36h1.431l-1.158.841.442,1.361-1.157-.842-1.158.842.442-1.361-1.158-.841h1.431Z" transform="translate(-166.939 -119.766)" fill="#efefef"/>
        <path id="Path_3462" data-name="Path 3462" d="M190.994,173.438l.442,1.361h1.431l-1.158.841.442,1.361-1.157-.842-1.158.842.442-1.361-1.158-.841h1.431Z" transform="translate(-166.939 -154.211)" fill="#efefef"/>
      </g>
    </g>
  </g>
</svg>
